<?xml version='1.0' encoding='UTF-8'?>
<svg xmlns="http://www.w3.org/2000/svg" xmlns:ns1="http://www.inkscape.org/namespaces/inkscape" xmlns:ns2="http://sodipodi.sourceforge.net/DTD/sodipodi-0.dtd" width="32" height="32" viewBox="60.5 7.4 90.0 90.0" version="1.1" id="svg265" ns1:export-filename="bidwell capital.png" ns1:export-xdpi="67.763405" ns1:export-ydpi="67.763405" ns1:version="1.2 (dc2aeda, 2022-05-15)" ns2:docname="Logo.svg">
  <defs id="defs262">
    <clipPath clipPathUnits="userSpaceOnUse" id="clipPath749">
      <path d="m -743.27,605.3501 h 999.99997 v -1000 H -743.27 Z" id="path751" style="stroke-width:0.999998" />
    </clipPath>
    <clipPath clipPathUnits="userSpaceOnUse" id="clipPath753">
      <path d="m -659.0698,569.9399 h 999.99997 v -1000 H -659.0698 Z" id="path755" style="stroke-width:0.999998" />
    </clipPath>
    <clipPath clipPathUnits="userSpaceOnUse" id="clipPath757">
      <path d="m -630.25,581.8198 h 999.99997 v -1000 H -630.25 Z" id="path759" style="stroke-width:0.999998" />
    </clipPath>
    <clipPath clipPathUnits="userSpaceOnUse" id="clipPath761">
      <path d="m -700.4399,594.7402 h 999.99997 v -1000 H -700.4399 Z" id="path763" style="stroke-width:0.999998" />
    </clipPath>
    <clipPath clipPathUnits="userSpaceOnUse" id="clipPath765">
      <path d="m -565.25,594.7402 h 999.99997 v -1000 H -565.25 Z" id="path767" style="stroke-width:0.999998" />
    </clipPath>
    <clipPath clipPathUnits="userSpaceOnUse" id="clipPath769">
      <path d="m -547.1699,600.1001 h 999.99997 v -1000 H -547.1699 Z" id="path771" style="stroke-width:0.999998" />
    </clipPath>
    <clipPath clipPathUnits="userSpaceOnUse" id="clipPath773">
      <path d="m -487.6099,600.2998 h 999.99997 v -1000 H -487.6099 Z" id="path775" style="stroke-width:0.999998" />
    </clipPath>
    <clipPath clipPathUnits="userSpaceOnUse" id="clipPath777">
      <path d="m -451.3501,600.2998 h 999.99997 v -1000 H -451.3501 Z" id="path779" style="stroke-width:0.999998" />
    </clipPath>
    <clipPath clipPathUnits="userSpaceOnUse" id="clipPath781">
      <path d="m -412.2402,600.4102 h 999.99997 v -1000 H -412.2402 Z" id="path783" style="stroke-width:0.999998" />
    </clipPath>
    <clipPath clipPathUnits="userSpaceOnUse" id="clipPath785">
      <path d="m -386.1001,570.0298 h 999.99997 v -1000 H -386.1001 Z" id="path787" style="stroke-width:0.999998" />
    </clipPath>
    <clipPath clipPathUnits="userSpaceOnUse" id="clipPath789">
      <path d="m -323.3398,589.0098 h 999.99997 v -1000 H -323.3398 Z" id="path791" style="stroke-width:0.999998" />
    </clipPath>
    <clipPath clipPathUnits="userSpaceOnUse" id="clipPath793">
      <path d="m -258.3398,596.4399 h 999.99997 v -1000 H -258.3398 Z" id="path795" style="stroke-width:0.999998" />
    </clipPath>
    <clipPath clipPathUnits="userSpaceOnUse" id="clipPath797">
      <path d="m -560.02,522.9102 h 999.99997 v -1000 H -560.02 Z" id="path799" style="stroke-width:0.999998" />
    </clipPath>
    <clipPath clipPathUnits="userSpaceOnUse" id="clipPath801">
      <path d="m -559.9307,347.1982 h 999.99997 v -1000 H -559.9307 Z" id="path803" style="stroke-width:0.999998" />
    </clipPath>
    <clipPath clipPathUnits="userSpaceOnUse" id="clipPath805">
      <path d="m -512.6929,382.2012 h 999.99997 v -1000 H -512.6929 Z" id="path807" style="stroke-width:0.999998" />
    </clipPath>
    <clipPath clipPathUnits="userSpaceOnUse" id="clipPath809">
      <path d="m -465.3911,418.6084 h 999.99997 v -1000 H -465.3911 Z" id="path811" style="stroke-width:0.999998" />
    </clipPath>
    <clipPath clipPathUnits="userSpaceOnUse" id="clipPath813">
      <path d="m -453.2803,529.3701 h 999.99997 v -1000 H -453.2803 Z" id="path815" style="stroke-width:0.999998" />
    </clipPath>
    <clipPath clipPathUnits="userSpaceOnUse" id="clipPath817">
      <path d="m -428.5698,489.52 h 999.99997 v -1000 H -428.5698 Z" id="path819" style="stroke-width:0.999998" />
    </clipPath>
    <clipPath clipPathUnits="userSpaceOnUse" id="clipPath821">
      <path d="m -613.6802,426.3398 h 999.99997 v -1000 H -613.6802 Z" id="path823" style="stroke-width:0.999998" />
    </clipPath>
  </defs>
  <g ns1:label="Layer 1" ns1:groupmode="layer" id="layer1">
    <g id="g14" transform="matrix(0.35277777,0,0,-0.35277777,-70.703431,251.17372)" style="fill:#c48a5a">
      <g id="g1047">
        <g id="g22" transform="translate(613.6802,573.6602)" style="fill:#c48a5a" clip-path="url(#clipPath821)" ns1:export-filename="Logo Black.png" ns1:export-xdpi="67.763405" ns1:export-ydpi="67.763405">
          <path d="m 0,0 c 0,-38.53 -19.16,-72.58 -48.47,-93.14 -0.02,2.11 -0.26,4.22 -0.7,6.31 -0.87,4.19 -2.61,8.22 -5.01,11.65 -0.21,0.32 -0.44,0.63 -0.67,0.94 -0.34,0.45 -0.68,0.83 -1,1.15 0.71,0.47 1.41,0.96 2.1,1.46 26.18,18.71 43.22,49.23 43.22,83.71 0,39.12 -22.21,71.21 -47.79,87.26 C -22.86,77.99 0,45.29 0,0" style="fill:#c48a5a;fill-opacity:1;fill-rule:nonzero;stroke:none" id="path24" />
        </g>
        <g id="g26" transform="translate(428.5698,510.48)" style="fill:#c48a5a" clip-path="url(#clipPath817)">
          <path d="m 0,0 c 5.88,-5.48 13.2,-10.04 20.27,-14.01 -0.09,-0.13 -0.17,-0.26 -0.24,-0.39 l -0.66,-1.16 v -0.06 c -0.93,-1.81 -1.68,-3.67 -2.24,-5.55 -1.16,-3.85 -1.57,-7.76 -1.23,-11.61 0.08,-0.96 0.21,-1.91 0.39,-2.86 -0.18,0.1 -0.34,0.18 -0.48,0.26 -35.05,19.36 -58.15,55.68 -58.15,98.56 0,39.64 20.51,74.82 51.25,95.18 0,-0.1 -41.46,-29.35 -41.8,-83.1 C -33.08,45.56 -20.24,18.8 0,0" style="fill:#c48a5a;fill-opacity:1;fill-rule:nonzero;stroke:none" id="path28" />
        </g>
        <g id="g30" transform="translate(453.2803,470.6299)" style="fill:#c48a5a" clip-path="url(#clipPath813)">
          <path d="M 0,0 C -0.771,0.37 -1.61,0.79 -2.46,1.21 -3.18,3.23 -3.65,5.34 -3.83,7.49 -3.93,8.57 -3.95,9.66 -3.9,10.74 -3.26,7.54 -2.061,3.93 0,0" style="fill:#c48a5a;fill-opacity:1;fill-rule:nonzero;stroke:none" id="path32" />
        </g>
        <g id="g34" transform="translate(465.3911,581.3916)" style="fill:#c48a5a" clip-path="url(#clipPath809)">
          <path d="m 0,0 v -71.35 c -2.7,-0.91 -5.26,-2.18 -7.55,-3.78 -2.48,-1.72 -4.68,-3.8 -6.53,-6.15 -0.12,0.06 -0.24,0.12 -0.36,0.19 -6.84,3.82 -13.485,8.181 -19.235,13.541 -1.17,1.08 -2.045,1.948 -3.145,3.089 V 0 Z" style="fill:#c48a5a;fill-opacity:1;fill-rule:nonzero;stroke:none" id="path36" />
        </g>
        <g id="g38" transform="translate(512.6929,617.7988)" style="fill:#c48a5a" clip-path="url(#clipPath805)">
          <path d="m 0,0 v -113.77 c -0.63,-0.52 -1.24,-1.04 -1.83,-1.55 -0.86,-0.75 -1.7,-1.56 -2.5,-2.4 -0.11,-0.11 -0.7,-0.75 -1.27,-1.37 -0.95,-1.06 -1.56,-2.03 -1.9,-2.91 l -0.77,0.79 c -4.2,4.27 -8.95,9.1 -15.1,12.1 -4.09,2 -8.74,3.06 -13.46,3.07 V 0 Z" style="fill:#c48a5a;fill-opacity:1;fill-rule:nonzero;stroke:none" id="path40" />
        </g>
        <g id="g42" transform="translate(559.9307,652.8018)" style="fill:#c48a5a" clip-path="url(#clipPath801)">
          <path d="m 0,0 0.168,-145.091 c -0.96,-0.741 -1.701,-1.209 -2.691,-1.919 -0.64,-0.46 -1.28,-0.91 -1.98,-1.381 -0.24,-0.159 -0.516,-0.388 -0.756,-0.539 -1.58,1.42 -3.701,3.04 -5.621,4.09 -3.83,2.12 -8.22,3.42 -12.68,3.74 -0.59,0.05 -1.18,0.06 -1.76,0.07 -0.24,0 -0.47,0 -0.7,0.01 -0.31,0.01 -0.62,0.02 -0.93,0.02 -3.35,0 -6.66,-0.57 -9.87,-1.7 V 0 Z" style="fill:#c48a5a;fill-opacity:1;fill-rule:nonzero;stroke:none" id="path44" />
        </g>
        <g id="g46" transform="translate(560.02,477.0898)" style="fill:#c48a5a" clip-path="url(#clipPath797)">
          <path d="m 0,0 c -0.11,-0.97 -0.29,-1.94 -0.52,-2.89 -0.33,-1.37 -0.77,-2.72 -1.33,-4.02 -2.71,-6.37 -7.96,-11.67 -14.38,-14.3 -7.73,-3.16 -16.97,-2.37 -24.05,2.05 -3.45,2.16 -6.35,5.07 -9.22,7.95 -7.07,7.12 -14.15,14.25 -21.22,21.37 -2.23,2.24 -4.51,4.52 -7.35,5.91 -5.64,2.76 -13.06,1.21 -17.12,-3.59 -0.05,-0.06 -0.1,-0.12 -0.14,-0.18 -3.92,-4.8 -4.18,-12.25 -0.56,-17.29 0.18,-0.25 0.36,-0.49 0.56,-0.72 3.8,-4.59 10.66,-6.42 16.22,-4.23 4.19,1.65 7.33,5.16 10.3,8.55 2.93,-2.94 5.85,-5.88 8.77,-8.82 -5.13,-5.68 -11.4,-10.76 -18.87,-12.44 -5.49,-1.23 -11.37,-0.49 -16.46,1.91 -3.55,1.68 -6.67,4.18 -9.15,7.21 h -0.01 c -1.81,2.22 -3.28,4.71 -4.33,7.37 -0.12,0.3 -0.23,0.6 -0.34,0.91 -0.72,2.02 -1.19,4.13 -1.37,6.28 -0.1,1.08 -0.12,2.17 -0.07,3.25 0.09,2.2 0.47,4.38 1.11,6.49 0.59,2 1.42,3.92 2.45,5.73 v 0.01 c 0.84,1.47 1.81,2.86 2.91,4.14 1.41,1.67 3.04,3.16 4.84,4.41 7.61,5.29 18.11,6.11 26.44,2.05 5.31,-2.6 9.57,-6.9 13.72,-11.12 6.03,-6.14 12.06,-12.27 18.1,-18.41 3.01,-3.07 6.17,-6.23 10.23,-7.66 5.48,-1.94 12.09,-0.08 15.75,4.43 0.04,0.04 0.08,0.09 0.12,0.14 3.65,4.61 3.98,11.57 0.8,16.51 -0.28,0.43 -0.59,0.85 -0.92,1.24 -3.4,4.11 -9.25,6.12 -14.45,4.81 -4.81,-1.21 -8.63,-4.83 -11.73,-8.7 -2.97,2.92 -5.94,5.83 -8.91,8.75 -0.07,0.07 1.94,2.24 2.13,2.43 0.71,0.74 1.44,1.44 2.2,2.11 2.04,1.77 4.43,3.73 6.83,5 3.97,2.09 8.25,3.19 12.76,3.05 0.75,-0.02 1.5,-0.01 2.24,-0.07 3.71,-0.27 7.38,-1.32 10.63,-3.12 1.14,-0.63 2.22,-1.35 3.23,-2.16 0.43,-0.34 0.85,-0.7 1.26,-1.07 0.67,-0.63 1.31,-1.3 1.9,-2.01 0.16,-0.19 0.33,-0.37 0.5,-0.54 l 0.01,-0.01 c 0.44,-0.45 0.91,-0.86 1.3,-1.38 0.18,-0.24 0.36,-0.49 0.52,-0.74 2.09,-2.96 3.53,-6.35 4.27,-9.88 C 0.21,5.85 0.35,2.89 0,0" style="fill:#c48a5a;fill-opacity:1;fill-rule:nonzero;stroke:none" id="path48" />
        </g>

      </g>
    </g>
  </g>
</svg>